<svg width="76" height="13" viewBox="0 0 76 13" fill="none" xmlns="http://www.w3.org/2000/svg">
<path d="M5.976 12L3.416 7.552H2.024V12H0.2V0.879999H4.04C4.89333 0.879999 5.61333 1.02933 6.2 1.328C6.79733 1.62667 7.24 2.02667 7.528 2.528C7.82667 3.02933 7.976 3.58933 7.976 4.208C7.976 4.93333 7.76267 5.59467 7.336 6.192C6.92 6.77867 6.27467 7.17867 5.4 7.392L8.152 12H5.976ZM2.024 6.096H4.04C4.72267 6.096 5.23467 5.92533 5.576 5.584C5.928 5.24267 6.104 4.784 6.104 4.208C6.104 3.632 5.93333 3.184 5.592 2.864C5.25067 2.53333 4.73333 2.368 4.04 2.368H2.024V6.096ZM18.3894 7.376C18.3894 7.70667 18.368 8.00533 18.3254 8.272H11.5894C11.6427 8.976 11.904 9.54133 12.3734 9.968C12.8427 10.3947 13.4187 10.608 14.1014 10.608C15.0827 10.608 15.776 10.1973 16.1814 9.376H18.1494C17.8827 10.1867 17.3974 10.8533 16.6934 11.376C16 11.888 15.136 12.144 14.1014 12.144C13.2587 12.144 12.5014 11.9573 11.8294 11.584C11.168 11.2 10.6454 10.6667 10.2614 9.984C9.88804 9.29067 9.70138 8.49067 9.70138 7.584C9.70138 6.67733 9.88271 5.88267 10.2454 5.2C10.6187 4.50667 11.136 3.97333 11.7974 3.6C12.4694 3.22667 13.2374 3.04 14.1014 3.04C14.9334 3.04 15.6747 3.22133 16.3254 3.584C16.976 3.94667 17.4827 4.45867 17.8454 5.12C18.208 5.77067 18.3894 6.52267 18.3894 7.376ZM16.4854 6.8C16.4747 6.128 16.2347 5.58933 15.7654 5.184C15.296 4.77867 14.7147 4.576 14.0214 4.576C13.392 4.576 12.8534 4.77867 12.4054 5.184C11.9574 5.57867 11.6907 6.11733 11.6054 6.8H16.4854ZM19.5764 7.552C19.5764 6.66667 19.7577 5.88267 20.1204 5.2C20.4937 4.51733 20.995 3.98933 21.6244 3.616C22.2644 3.232 22.9684 3.04 23.7364 3.04C24.4297 3.04 25.0324 3.17867 25.5444 3.456C26.067 3.72267 26.483 4.05867 26.7924 4.464V3.184H28.6324V12H26.7924V10.688C26.483 11.104 26.0617 11.4507 25.5284 11.728C24.995 12.0053 24.387 12.144 23.7044 12.144C22.947 12.144 22.2537 11.952 21.6244 11.568C20.995 11.1733 20.4937 10.6293 20.1204 9.936C19.7577 9.232 19.5764 8.43733 19.5764 7.552ZM26.7924 7.584C26.7924 6.976 26.6644 6.448 26.4084 6C26.163 5.552 25.8377 5.21067 25.4324 4.976C25.027 4.74133 24.5897 4.624 24.1204 4.624C23.651 4.624 23.2137 4.74133 22.8084 4.976C22.403 5.2 22.0724 5.536 21.8164 5.984C21.571 6.42133 21.4484 6.944 21.4484 7.552C21.4484 8.16 21.571 8.69333 21.8164 9.152C22.0724 9.61067 22.403 9.96267 22.8084 10.208C23.2244 10.4427 23.6617 10.56 24.1204 10.56C24.5897 10.56 25.027 10.4427 25.4324 10.208C25.8377 9.97333 26.163 9.632 26.4084 9.184C26.6644 8.72533 26.7924 8.192 26.7924 7.584ZM30.4201 7.584C30.4201 6.67733 30.6015 5.88267 30.9641 5.2C31.3375 4.50667 31.8495 3.97333 32.5001 3.6C33.1508 3.22667 33.8975 3.04 34.7401 3.04C35.8068 3.04 36.6868 3.296 37.3801 3.808C38.0841 4.30933 38.5588 5.02933 38.8041 5.968H36.8361C36.6761 5.53067 36.4201 5.18933 36.0681 4.944C35.7161 4.69867 35.2735 4.576 34.7401 4.576C33.9935 4.576 33.3961 4.84267 32.9481 5.376C32.5108 5.89867 32.2921 6.63467 32.2921 7.584C32.2921 8.53333 32.5108 9.27467 32.9481 9.808C33.3961 10.3413 33.9935 10.608 34.7401 10.608C35.7961 10.608 36.4948 10.144 36.8361 9.216H38.8041C38.5481 10.112 38.0681 10.8267 37.3641 11.36C36.6601 11.8827 35.7855 12.144 34.7401 12.144C33.8975 12.144 33.1508 11.9573 32.5001 11.584C31.8495 11.2 31.3375 10.6667 30.9641 9.984C30.6015 9.29067 30.4201 8.49067 30.4201 7.584ZM42.7499 4.672V9.552C42.7499 9.88267 42.8245 10.1227 42.9739 10.272C43.1339 10.4107 43.4005 10.48 43.7739 10.48H44.8939V12H43.4539C42.6325 12 42.0032 11.808 41.5659 11.424C41.1285 11.04 40.9099 10.416 40.9099 9.552V4.672H39.8699V3.184H40.9099V0.992H42.7499V3.184H44.8939V4.672H42.7499ZM54.559 3.184V12H52.735V10.96C52.447 11.3227 52.0683 11.6107 51.599 11.824C51.1403 12.0267 50.6497 12.128 50.127 12.128C49.4337 12.128 48.8097 11.984 48.255 11.696C47.711 11.408 47.279 10.9813 46.959 10.416C46.6497 9.85067 46.495 9.168 46.495 8.368V3.184H48.303V8.096C48.303 8.88533 48.5003 9.49333 48.895 9.92C49.2897 10.336 49.8283 10.544 50.511 10.544C51.1937 10.544 51.7323 10.336 52.127 9.92C52.5323 9.49333 52.735 8.88533 52.735 8.096V3.184H54.559ZM58.7896 4.496C59.099 4.06933 59.5203 3.72267 60.0536 3.456C60.5976 3.17867 61.2003 3.04 61.8616 3.04C62.6403 3.04 63.3443 3.22667 63.9736 3.6C64.603 3.97333 65.099 4.50667 65.4616 5.2C65.8243 5.88267 66.0056 6.66667 66.0056 7.552C66.0056 8.43733 65.8243 9.232 65.4616 9.936C65.099 10.6293 64.5976 11.1733 63.9576 11.568C63.3283 11.952 62.6296 12.144 61.8616 12.144C61.179 12.144 60.571 12.0107 60.0376 11.744C59.515 11.4773 59.099 11.136 58.7896 10.72V12H56.9656V0.16H58.7896V4.496ZM64.1496 7.552C64.1496 6.944 64.0216 6.42133 63.7656 5.984C63.5203 5.536 63.1896 5.2 62.7736 4.976C62.3683 4.74133 61.931 4.624 61.4616 4.624C61.003 4.624 60.5656 4.74133 60.1496 4.976C59.7443 5.21067 59.4136 5.552 59.1576 6C58.9123 6.448 58.7896 6.976 58.7896 7.584C58.7896 8.192 58.9123 8.72533 59.1576 9.184C59.4136 9.632 59.7443 9.97333 60.1496 10.208C60.5656 10.4427 61.003 10.56 61.4616 10.56C61.931 10.56 62.3683 10.4427 62.7736 10.208C63.1896 9.96267 63.5203 9.61067 63.7656 9.152C64.0216 8.69333 64.1496 8.16 64.1496 7.552ZM75.8894 7.376C75.8894 7.70667 75.868 8.00533 75.8254 8.272H69.0894C69.1427 8.976 69.404 9.54133 69.8734 9.968C70.3427 10.3947 70.9187 10.608 71.6014 10.608C72.5827 10.608 73.276 10.1973 73.6814 9.376H75.6494C75.3827 10.1867 74.8974 10.8533 74.1934 11.376C73.5 11.888 72.636 12.144 71.6014 12.144C70.7587 12.144 70.0014 11.9573 69.3294 11.584C68.668 11.2 68.1454 10.6667 67.7614 9.984C67.388 9.29067 67.2014 8.49067 67.2014 7.584C67.2014 6.67733 67.3827 5.88267 67.7454 5.2C68.1187 4.50667 68.636 3.97333 69.2974 3.6C69.9694 3.22667 70.7374 3.04 71.6014 3.04C72.4334 3.04 73.1747 3.22133 73.8254 3.584C74.476 3.94667 74.9827 4.45867 75.3454 5.12C75.708 5.77067 75.8894 6.52267 75.8894 7.376ZM73.9854 6.8C73.9747 6.128 73.7347 5.58933 73.2654 5.184C72.796 4.77867 72.2147 4.576 71.5214 4.576C70.892 4.576 70.3534 4.77867 69.9054 5.184C69.4574 5.57867 69.1907 6.11733 69.1054 6.8H73.9854Z" fill="#1E293B"/>
</svg>
