<svg width="58" height="10" viewBox="0 0 58 10" fill="none" xmlns="http://www.w3.org/2000/svg">
<path d="M5.232 9L3.312 5.664H2.268V9H0.9V0.659999H3.78C4.42 0.659999 4.96 0.771999 5.4 0.995999C5.848 1.22 6.18 1.52 6.396 1.896C6.62 2.272 6.732 2.692 6.732 3.156C6.732 3.7 6.572 4.196 6.252 4.644C5.94 5.084 5.456 5.384 4.8 5.544L6.864 9H5.232ZM2.268 4.572H3.78C4.292 4.572 4.676 4.444 4.932 4.188C5.196 3.932 5.328 3.588 5.328 3.156C5.328 2.724 5.2 2.388 4.944 2.148C4.688 1.9 4.3 1.776 3.78 1.776H2.268V4.572ZM14.542 5.532C14.542 5.78 14.526 6.004 14.494 6.204H9.44203C9.48203 6.732 9.67803 7.156 10.03 7.476C10.382 7.796 10.814 7.956 11.326 7.956C12.062 7.956 12.582 7.648 12.886 7.032H14.362C14.162 7.64 13.798 8.14 13.27 8.532C12.75 8.916 12.102 9.108 11.326 9.108C10.694 9.108 10.126 8.968 9.62203 8.688C9.12603 8.4 8.73403 8 8.44603 7.488C8.16603 6.968 8.02603 6.368 8.02603 5.688C8.02603 5.008 8.16203 4.412 8.43403 3.9C8.71403 3.38 9.10203 2.98 9.59803 2.7C10.102 2.42 10.678 2.28 11.326 2.28C11.95 2.28 12.506 2.416 12.994 2.688C13.482 2.96 13.862 3.344 14.134 3.84C14.406 4.328 14.542 4.892 14.542 5.532ZM13.114 5.1C13.106 4.596 12.926 4.192 12.574 3.888C12.222 3.584 11.786 3.432 11.266 3.432C10.794 3.432 10.39 3.584 10.054 3.888C9.71803 4.184 9.51803 4.588 9.45403 5.1H13.114ZM15.4323 5.664C15.4323 5 15.5683 4.412 15.8403 3.9C16.1203 3.388 16.4963 2.992 16.9683 2.712C17.4483 2.424 17.9763 2.28 18.5523 2.28C19.0723 2.28 19.5243 2.384 19.9083 2.592C20.3003 2.792 20.6123 3.044 20.8443 3.348V2.388H22.2243V9H20.8443V8.016C20.6123 8.328 20.2963 8.588 19.8963 8.796C19.4963 9.004 19.0403 9.108 18.5283 9.108C17.9603 9.108 17.4403 8.964 16.9683 8.676C16.4963 8.38 16.1203 7.972 15.8403 7.452C15.5683 6.924 15.4323 6.328 15.4323 5.664ZM20.8443 5.688C20.8443 5.232 20.7483 4.836 20.5563 4.5C20.3723 4.164 20.1283 3.908 19.8243 3.732C19.5203 3.556 19.1923 3.468 18.8403 3.468C18.4883 3.468 18.1603 3.556 17.8563 3.732C17.5523 3.9 17.3043 4.152 17.1123 4.488C16.9283 4.816 16.8363 5.208 16.8363 5.664C16.8363 6.12 16.9283 6.52 17.1123 6.864C17.3043 7.208 17.5523 7.472 17.8563 7.656C18.1683 7.832 18.4963 7.92 18.8403 7.92C19.1923 7.92 19.5203 7.832 19.8243 7.656C20.1283 7.48 20.3723 7.224 20.5563 6.888C20.7483 6.544 20.8443 6.144 20.8443 5.688ZM23.5651 5.688C23.5651 5.008 23.7011 4.412 23.9731 3.9C24.2531 3.38 24.6371 2.98 25.1251 2.7C25.6131 2.42 26.1731 2.28 26.8051 2.28C27.6051 2.28 28.2651 2.472 28.7851 2.856C29.3131 3.232 29.6691 3.772 29.8531 4.476H28.3771C28.2571 4.148 28.0651 3.892 27.8011 3.708C27.5371 3.524 27.2051 3.432 26.8051 3.432C26.2451 3.432 25.7971 3.632 25.4611 4.032C25.1331 4.424 24.9691 4.976 24.9691 5.688C24.9691 6.4 25.1331 6.956 25.4611 7.356C25.7971 7.756 26.2451 7.956 26.8051 7.956C27.5971 7.956 28.1211 7.608 28.3771 6.912H29.8531C29.6611 7.584 29.3011 8.12 28.7731 8.52C28.2451 8.912 27.5891 9.108 26.8051 9.108C26.1731 9.108 25.6131 8.968 25.1251 8.688C24.6371 8.4 24.2531 8 23.9731 7.488C23.7011 6.968 23.5651 6.368 23.5651 5.688ZM32.8124 3.504V7.164C32.8124 7.412 32.8684 7.592 32.9804 7.704C33.1004 7.808 33.3004 7.86 33.5804 7.86H34.4204V9H33.3404C32.7244 9 32.2524 8.856 31.9244 8.568C31.5964 8.28 31.4324 7.812 31.4324 7.164V3.504H30.6524V2.388H31.4324V0.744H32.8124V2.388H34.4204V3.504H32.8124ZM41.6693 2.388V9H40.3013V8.22C40.0853 8.492 39.8013 8.708 39.4493 8.868C39.1053 9.02 38.7373 9.096 38.3453 9.096C37.8253 9.096 37.3573 8.988 36.9413 8.772C36.5333 8.556 36.2093 8.236 35.9693 7.812C35.7373 7.388 35.6213 6.876 35.6213 6.276V2.388H36.9773V6.072C36.9773 6.664 37.1253 7.12 37.4213 7.44C37.7173 7.752 38.1213 7.908 38.6333 7.908C39.1453 7.908 39.5493 7.752 39.8453 7.44C40.1493 7.12 40.3013 6.664 40.3013 6.072V2.388H41.6693ZM44.8422 3.372C45.0742 3.052 45.3902 2.792 45.7902 2.592C46.1982 2.384 46.6502 2.28 47.1462 2.28C47.7302 2.28 48.2582 2.42 48.7302 2.7C49.2022 2.98 49.5742 3.38 49.8462 3.9C50.1182 4.412 50.2542 5 50.2542 5.664C50.2542 6.328 50.1182 6.924 49.8462 7.452C49.5742 7.972 49.1982 8.38 48.7182 8.676C48.2462 8.964 47.7222 9.108 47.1462 9.108C46.6342 9.108 46.1782 9.008 45.7782 8.808C45.3862 8.608 45.0742 8.352 44.8422 8.04V9H43.4742V0.12H44.8422V3.372ZM48.8622 5.664C48.8622 5.208 48.7662 4.816 48.5742 4.488C48.3902 4.152 48.1422 3.9 47.8302 3.732C47.5262 3.556 47.1982 3.468 46.8462 3.468C46.5022 3.468 46.1742 3.556 45.8622 3.732C45.5582 3.908 45.3102 4.164 45.1182 4.5C44.9342 4.836 44.8422 5.232 44.8422 5.688C44.8422 6.144 44.9342 6.544 45.1182 6.888C45.3102 7.224 45.5582 7.48 45.8622 7.656C46.1742 7.832 46.5022 7.92 46.8462 7.92C47.1982 7.92 47.5262 7.832 47.8302 7.656C48.1422 7.472 48.3902 7.208 48.5742 6.864C48.7662 6.52 48.8622 6.12 48.8622 5.664ZM57.667 5.532C57.667 5.78 57.651 6.004 57.619 6.204H52.567C52.607 6.732 52.803 7.156 53.155 7.476C53.507 7.796 53.939 7.956 54.451 7.956C55.187 7.956 55.707 7.648 56.011 7.032H57.487C57.287 7.64 56.923 8.14 56.395 8.532C55.875 8.916 55.227 9.108 54.451 9.108C53.819 9.108 53.251 8.968 52.747 8.688C52.251 8.4 51.859 8 51.571 7.488C51.291 6.968 51.151 6.368 51.151 5.688C51.151 5.008 51.287 4.412 51.559 3.9C51.839 3.38 52.227 2.98 52.723 2.7C53.227 2.42 53.803 2.28 54.451 2.28C55.075 2.28 55.631 2.416 56.119 2.688C56.607 2.96 56.987 3.344 57.259 3.84C57.531 4.328 57.667 4.892 57.667 5.532ZM56.239 5.1C56.231 4.596 56.051 4.192 55.699 3.888C55.347 3.584 54.911 3.432 54.391 3.432C53.919 3.432 53.515 3.584 53.179 3.888C52.843 4.184 52.643 4.588 52.579 5.1H56.239Z" fill="#1E293B"/>
</svg>
